<svg width="1170" height="340" viewBox="0 0 1170 340" fill="none" xmlns="http://www.w3.org/2000/svg">
<mask id="mask0_1_9" style="mask-type:alpha" maskUnits="userSpaceOnUse" x="0" y="0" width="1170" height="340">
<rect width="1170" height="340" rx="8" fill="#3F51B5"/>
</mask>
<g mask="url(#mask0_1_9)">
<path d="M147.726 307.727C151.91 303.543 151.91 296.76 147.726 292.576C143.543 288.392 136.759 288.392 132.575 292.576C128.392 296.76 128.392 303.543 132.575 307.727C136.759 311.911 143.543 311.911 147.726 307.727Z" fill="#D3DAFF" fill-opacity="0.03"/>
<path d="M373.655 50.6556C405.624 18.6865 405.624 -33.1455 373.655 -65.1146C341.686 -97.0837 289.854 -97.0836 257.885 -65.1146C225.916 -33.1455 225.916 18.6865 257.885 50.6556C289.854 82.6247 341.686 82.6247 373.655 50.6556Z" fill="#E8EBFF" fill-opacity="0.04"/>
<path d="M857.655 397.656C889.624 365.687 889.624 313.854 857.655 281.885C825.686 249.916 773.854 249.916 741.885 281.885C709.916 313.854 709.916 365.687 741.885 397.656C773.854 429.625 825.686 429.625 857.655 397.656Z" fill="#2D41AE" fill-opacity="0.5"/>
<path d="M1133 -130C1059.55 -130 1000 -70.4541 1000 3.00002C1000 76.4541 1059.55 136 1133 136C1206.45 136 1266 76.4541 1266 3.00002C1266 -70.4541 1206.45 -130 1133 -130ZM1133 94.0649C1082.7 94.0649 1041.93 53.291 1041.93 2.99713C1041.93 -47.2968 1082.71 -88.0707 1133 -88.0707C1183.3 -88.0707 1224.07 -47.2968 1224.07 2.99713C1224.07 53.291 1183.3 94.0649 1133 94.0649Z" fill="#2D41AE"/>
<circle cx="-21" cy="326" r="124" fill="#2D41AE" fill-opacity="0.4"/>
</g>
<path fill-rule="evenodd" clip-rule="evenodd" d="M1013.05 110.289L1023.15 118.801L1087.89 82.1211L1013.05 110.289Z" fill="#D6DBF7"/>
<path fill-rule="evenodd" clip-rule="evenodd" d="M1012.4 78.252L1006.9 89.2243L1012.65 98.6297L1002.65 101.602L996.02 122.508L1090 81.1957L1012.4 78.252Z" fill="white"/>
<path fill-rule="evenodd" clip-rule="evenodd" d="M1012.65 98.6291L1006.9 89.2238L1060.03 85.3076L1012.65 98.6291Z" fill="#D3DAFF"/>
<path fill-rule="evenodd" clip-rule="evenodd" d="M987.773 111.352L987.524 110.51C989.974 109.788 991.298 109.375 991.3 109.374L991.563 110.212C991.563 110.212 990.233 110.628 987.773 111.352Z" fill="#D4E3ED"/>
<path fill-rule="evenodd" clip-rule="evenodd" d="M791.148 41.0042C788.581 40.3737 785.976 39.9944 783.406 39.878L783.445 39C786.073 39.1194 788.735 39.5067 791.357 40.1519L791.148 41.0042ZM768.151 42.6101L767.791 41.809C770.174 40.7376 772.753 39.9556 775.458 39.4869L775.608 40.3525C772.976 40.8087 770.468 41.5688 768.151 42.6101ZM805.344 47.4511C803.207 45.958 800.919 44.6524 798.543 43.573L798.907 42.7734C801.332 43.8747 803.667 45.2067 805.847 46.7306L805.344 47.4511ZM756.512 52.6247L755.769 52.1553C757.215 49.8721 758.979 47.8312 761.013 46.0884L761.584 46.7555C759.618 48.4412 757.911 50.4161 756.512 52.6247ZM816.247 58.5919C814.8 56.42 813.142 54.374 811.318 52.5111L811.946 51.896C813.808 53.7985 815.501 55.8869 816.978 58.105L816.247 58.5919ZM751.877 67.3814L751 67.3119C751.222 64.5388 751.712 61.8931 752.457 59.4487L753.297 59.705C752.571 62.0886 752.093 64.6713 751.877 67.3814ZM823.78 72.4817L823.179 71.327C822.122 69.2942 821.103 67.3324 820.116 65.4512L820.894 65.0426C821.881 66.9253 822.902 68.887 823.959 70.922L824.559 72.0775L823.78 72.4817ZM752.246 83.1773C751.668 80.4701 751.267 77.8171 751.053 75.2951L751.928 75.2204C752.139 77.7065 752.535 80.3214 753.105 82.9935L752.246 83.1773ZM831.176 86.5187C829.886 84.1242 828.645 81.7853 827.451 79.5138L828.229 79.1044C829.422 81.3745 830.661 83.709 831.949 86.1013L831.176 86.5187ZM757.007 98.3522C756.916 98.1347 756.827 97.915 756.74 97.6946C755.824 95.3872 755.002 93.0908 754.297 90.8706L755.135 90.604C755.834 92.8052 756.648 95.0819 757.557 97.3709C757.642 97.5877 757.729 97.8015 757.818 98.0154L757.007 98.3522ZM838.901 100.379C837.616 98.1604 836.298 95.8391 834.984 93.4782L835.752 93.0506C837.064 95.407 838.379 97.7247 839.662 99.9383L838.901 100.379ZM765.544 111.766C763.737 109.79 762.103 107.659 760.687 105.435L761.428 104.963C762.817 107.145 764.42 109.234 766.193 111.173L765.544 111.766ZM847.122 113.956C845.731 111.765 844.325 109.494 842.943 107.209L843.694 106.754C845.074 109.034 846.477 111.299 847.864 113.484L847.122 113.956ZM972.492 115.609L972.267 114.759C975.094 114.01 977.655 113.312 979.917 112.683L980.152 113.53C977.888 114.159 975.323 114.858 972.492 115.609ZM957.108 119.501L956.903 118.647C959.591 117.998 962.16 117.362 964.595 116.746L964.81 117.599C962.372 118.214 959.8 118.852 957.108 119.501ZM777.963 121.708C775.616 120.319 773.404 118.802 771.388 117.2L771.935 116.512C773.92 118.09 776.099 119.583 778.411 120.952L777.963 121.708ZM941.646 123.053L941.458 122.194C944.109 121.617 946.69 121.038 949.191 120.464L949.387 121.321C946.884 121.896 944.3 122.475 941.646 123.053ZM926.103 126.253L925.937 125.39C928.574 124.88 931.166 124.361 933.706 123.838L933.884 124.699C931.34 125.223 928.744 125.742 926.103 126.253ZM855.934 127.153C854.433 125.019 852.924 122.817 851.449 120.606L852.179 120.118C853.651 122.323 855.156 124.52 856.654 126.647L855.934 127.153ZM792.456 128.258C789.87 127.379 787.376 126.403 785.043 125.358L785.403 124.557C787.71 125.59 790.179 126.556 792.739 127.427L792.456 128.258ZM910.49 129.07L910.345 128.203C912.977 127.763 915.581 127.31 918.151 126.847L918.307 127.711C915.733 128.176 913.125 128.63 910.49 129.07ZM894.804 131.456L894.685 130.585C897.265 130.232 899.901 129.851 902.524 129.451L902.656 130.32C900.03 130.72 897.388 131.102 894.804 131.456ZM807.843 132.248C805.174 131.74 802.564 131.16 800.082 130.522L800.301 129.671C802.764 130.303 805.357 130.88 808.006 131.385L807.843 132.248ZM879.057 133.348L878.968 132.474C881.539 132.21 884.185 131.915 886.835 131.596L886.94 132.468C884.286 132.788 881.633 133.084 879.057 133.348ZM823.579 134.408C820.884 134.165 818.228 133.866 815.685 133.52L815.804 132.649C818.334 132.993 820.976 133.29 823.658 133.532L823.579 134.408ZM863.234 134.658L863.18 133.78C865.764 133.621 868.422 133.427 871.082 133.207L871.155 134.082C868.489 134.304 865.824 134.497 863.234 134.658ZM839.435 135.236C836.739 135.188 834.07 135.097 831.501 134.965L831.545 134.087C834.105 134.219 836.765 134.309 839.45 134.357L839.435 135.236ZM847.372 135.256L847.361 134.377C849.936 134.346 852.598 134.279 855.274 134.177L855.307 135.055C852.623 135.158 849.954 135.225 847.372 135.256ZM865.404 139.888C863.79 137.835 862.168 135.714 860.584 133.584L861.29 133.06C862.869 135.183 864.486 137.299 866.095 139.345L865.404 139.888ZM875.569 152.075C873.829 150.109 872.089 148.084 870.398 146.055L871.073 145.492C872.758 147.514 874.493 149.533 876.228 151.493L875.569 152.075ZM886.45 163.629C884.593 161.777 882.733 159.862 880.92 157.937L881.56 157.334C883.367 159.252 885.221 161.161 887.07 163.006L886.45 163.629ZM898.04 174.466C896.059 172.731 894.08 170.939 892.157 169.142L892.757 168.5C894.673 170.292 896.646 172.077 898.619 173.805L898.04 174.466ZM910.323 184.513C908.235 182.92 906.141 181.265 904.097 179.593L904.654 178.913C906.69 180.578 908.777 182.227 910.855 183.814L910.323 184.513ZM923.257 193.704C921.059 192.252 918.857 190.743 916.711 189.219L917.22 188.502C919.358 190.021 921.552 191.525 923.741 192.97L923.257 193.704ZM936.786 201.989C934.492 200.689 932.193 199.334 929.951 197.961L930.41 197.212C932.643 198.58 934.934 199.929 937.219 201.224L936.786 201.989ZM950.845 209.338C948.471 208.197 946.086 207.001 943.753 205.781L944.16 205.003C946.484 206.218 948.861 207.409 951.225 208.545L950.845 209.338ZM965.36 215.736C962.912 214.751 960.453 213.714 958.05 212.656L958.405 211.852C960.798 212.907 963.249 213.939 965.688 214.921L965.36 215.736ZM980.256 221.19C977.748 220.36 975.228 219.481 972.765 218.581L973.068 217.755C975.521 218.654 978.033 219.528 980.533 220.356L980.256 221.19ZM995.437 225.758C994.597 225.506 993.754 225.263 992.906 225.029C991.195 224.556 989.5 224.069 987.823 223.569L988.074 222.727C989.746 223.226 991.434 223.711 993.141 224.182C993.994 224.418 994.844 224.663 995.689 224.916L995.437 225.758ZM1010.23 231.26C1007.84 230.19 1005.38 229.183 1002.92 228.269L1003.23 227.445C1005.71 228.366 1008.18 229.379 1010.59 230.458L1010.23 231.26ZM1024.18 238.632C1021.95 237.259 1019.64 235.943 1017.33 234.718L1017.74 233.941C1020.07 235.174 1022.4 236.501 1024.64 237.883L1024.18 238.632ZM1037.05 247.761C1035.02 246.11 1032.91 244.502 1030.77 242.985L1031.28 242.269C1033.43 243.798 1035.56 245.415 1037.61 247.078L1037.05 247.761ZM1048.61 258.496C1046.82 256.591 1044.93 254.721 1043.01 252.937L1043.61 252.293C1045.54 254.091 1047.44 255.974 1049.25 257.893L1048.61 258.496ZM1058.65 270.666C1057.12 268.538 1055.5 266.434 1053.83 264.413L1054.51 263.854C1056.19 265.89 1057.82 268.009 1059.36 270.153L1058.65 270.666ZM1066.96 284.068C1065.74 281.757 1064.41 279.457 1063.03 277.227L1063.78 276.763C1065.17 279.009 1066.5 281.328 1067.74 283.656L1066.96 284.068ZM1073.38 298.47C1072.48 296.014 1071.48 293.555 1070.42 291.159L1071.22 290.802C1072.29 293.215 1073.3 295.694 1074.2 298.168L1073.38 298.47ZM1077.76 313.608C1077.21 311.051 1076.56 308.479 1075.83 305.964L1076.68 305.72C1077.41 308.254 1078.07 310.846 1078.62 313.423L1077.76 313.608ZM1080.05 329.217C1079.93 327.732 1079.78 326.241 1079.61 324.784C1079.48 323.643 1079.33 322.504 1079.17 321.372L1080.04 321.244C1080.2 322.386 1080.35 323.532 1080.49 324.684C1080.66 326.15 1080.81 327.65 1080.93 329.143L1080.05 329.217Z" fill="#D3DAFF"/>
<path fill-rule="evenodd" clip-rule="evenodd" d="M1081.42 339.973H1080.54C1080.54 338.646 1080.53 338.51 1080.49 337.208L1081.37 337.184C1081.41 338.494 1081.42 338.639 1081.42 339.973Z" fill="#D3DAFF"/>
<path fill-rule="evenodd" clip-rule="evenodd" d="M776.351 282.889C776.044 283.72 775.812 284.544 775.64 285.358C775.824 284.866 776.024 284.377 776.119 284.035C776.233 283.62 776.304 283.252 776.351 282.889Z" fill="#0DBC9C"/>
<path fill-rule="evenodd" clip-rule="evenodd" d="M875.696 100H868.272V248.817L875.696 243.776V100Z" fill="#F68C6A"/>
<path fill-rule="evenodd" clip-rule="evenodd" d="M875.696 190.695H868.272V206.788L875.696 202.363V190.695Z" fill="#E95629"/>
<path fill-rule="evenodd" clip-rule="evenodd" d="M875.696 142.107H868.272V158.2L875.696 153.776V142.107Z" fill="#E95629"/>
<path fill-rule="evenodd" clip-rule="evenodd" d="M875.696 338.939V243.776L868.272 248.817V338.939H875.696Z" fill="#F5734A"/>
<path fill-rule="evenodd" clip-rule="evenodd" d="M886.671 339.571C886.669 339.578 886.666 339.59 886.666 339.59H892.284C893.685 333.241 900.838 331.93 904.811 331.699C905.26 331.673 905.311 331.024 904.874 330.916C899.768 329.646 896.041 330.218 893.337 331.531C891.862 333.948 890.885 336.628 890.707 339.571H886.671Z" fill="#0DBC9C"/>
<path fill-rule="evenodd" clip-rule="evenodd" d="M886.67 339.572H890.706C890.884 336.628 891.861 333.948 893.337 331.531C888.138 334.056 886.734 339.32 886.67 339.572Z" fill="#008F68"/>
<path fill-rule="evenodd" clip-rule="evenodd" d="M848.78 335.639C843.778 333.508 838.057 335.061 835.075 336.187C834.882 336.259 834.965 336.539 835.167 336.506C841.414 335.492 847.677 339.589 847.677 339.589H853.764C853.759 339.583 853.754 339.578 853.749 339.571H850.682C850.682 339.571 850.103 337.969 848.78 335.639Z" fill="#0DBC9C"/>
<path fill-rule="evenodd" clip-rule="evenodd" d="M848.78 335.64C850.103 337.97 850.683 339.572 850.683 339.572H853.749C852.295 337.651 850.584 336.408 848.78 335.64Z" fill="#008F68"/>
<path fill-rule="evenodd" clip-rule="evenodd" d="M913.132 315.02C901.703 314.312 893.826 318.147 888.49 322.984C887.734 326.173 885.652 329.793 885.012 332.885C884.51 335.314 884.575 337.241 884.164 339.571H889.508C890.308 326.29 907.351 318.34 913.292 315.964C913.774 315.771 913.65 315.052 913.132 315.02Z" fill="#0DBC9C"/>
<path fill-rule="evenodd" clip-rule="evenodd" d="M878.247 339.572H885.012C884.791 334.276 886.667 328.68 888.491 322.985C880.562 330.173 878.247 339.572 878.247 339.572Z" fill="#008F68"/>
<path fill-rule="evenodd" clip-rule="evenodd" d="M814.409 317.004C813.772 317.34 814.059 318.332 814.775 318.247C842.745 314.936 851.63 339.572 851.63 339.572H859.115C858.878 336.105 858.399 332.833 857.725 329.743C841.545 305.793 821.46 313.288 814.409 317.004Z" fill="#0DBC9C"/>
<path fill-rule="evenodd" clip-rule="evenodd" d="M857.725 329.742C858.399 332.832 858.878 336.105 859.114 339.572H863.255C861.485 335.818 859.631 332.565 857.725 329.742Z" fill="#008F68"/>
<path fill-rule="evenodd" clip-rule="evenodd" d="M870.479 320.159C864.37 303.406 852.267 289.115 824.495 284.542C823.775 284.423 823.449 285.415 824.101 285.743C833.923 290.695 858.334 306.268 860.598 339.59H875.551C875.551 339.59 875.549 339.578 875.548 339.571H868.214C868.214 339.571 868.208 331.817 870.479 320.159Z" fill="#0DBC9C"/>
<path fill-rule="evenodd" clip-rule="evenodd" d="M868.214 339.572H875.548C875.51 339.264 874.486 331.149 870.479 320.159C868.207 331.817 868.214 339.572 868.214 339.572Z" fill="#008F68"/>
<path fill-rule="evenodd" clip-rule="evenodd" d="M871.366 339.572C871.366 339.572 865.311 300.005 901.852 275.307C902.248 275.04 902.737 275.489 902.498 275.903C895.353 288.265 885.059 308.345 883.636 339.572H871.366Z" fill="#0DBC9C"/>
<path fill-rule="evenodd" clip-rule="evenodd" d="M921.582 113.537L799.484 119.673L813.81 133.232L800.97 149.234L929.092 142.795L950.082 125.439L921.582 113.537Z" fill="#DB4F25"/>
<path fill-rule="evenodd" clip-rule="evenodd" d="M923.601 121.779C922.678 121.825 921.811 122.066 921.034 122.456C923.358 123.341 925.062 125.53 925.195 128.173C925.328 130.817 923.852 133.166 921.628 134.28C922.441 134.589 923.327 134.743 924.25 134.696C927.818 134.517 930.564 131.48 930.385 127.913C930.205 124.346 927.168 121.6 923.601 121.779Z" fill="#E5EEF4"/>
<path fill-rule="evenodd" clip-rule="evenodd" d="M925.195 128.174C925.062 125.531 923.358 123.341 921.034 122.456C918.81 123.57 917.334 125.919 917.467 128.562C917.6 131.205 919.304 133.395 921.628 134.28C923.852 133.166 925.328 130.817 925.195 128.174Z" fill="white"/>
<path fill-rule="evenodd" clip-rule="evenodd" d="M874.432 118.823C876.594 119.8 880.779 119.869 888.634 115.193L871.819 116.038C872.155 116.893 872.886 118.125 874.432 118.823Z" fill="#F5734A"/>
<path fill-rule="evenodd" clip-rule="evenodd" d="M850.401 126.746C872.504 131.106 886.36 128.053 895.962 124.908C896.049 124.861 907.574 119.131 919.459 119.852C927.711 120.35 933.677 118.412 936.534 117.193L927.114 113.259L890.844 115.082C885.548 118.461 881.164 120.249 877.751 120.421C876.321 120.492 875.061 120.282 873.975 119.786C871.911 118.846 871.052 117.127 870.709 116.093L860.841 116.589C856.501 118.291 845.612 122.003 834.737 121.308C820.907 120.424 812.045 125.572 811.957 125.624L811.753 125.28C811.842 125.227 820.802 120.017 834.763 120.909C844.708 121.545 854.672 118.465 859.55 116.655L805.017 119.395L816.916 130.657C820.227 128.557 831.264 122.971 850.401 126.746Z" fill="#F5734A"/>
<path fill-rule="evenodd" clip-rule="evenodd" d="M955.614 125.161L937.043 117.405C934.293 118.628 928.102 120.776 919.435 120.251C907.658 119.539 896.228 125.219 896.114 125.277C890.734 127.04 884.04 128.772 875.344 129.21C868.399 129.558 860.178 129.083 850.324 127.139C838.321 124.771 829.645 126.146 824.481 127.716C820.915 128.8 818.5 130.118 817.209 130.935L819.342 132.954L815.43 137.829C815.865 137.615 820.388 135.573 832.181 136.98C843.187 138.294 849.238 136.7 854.578 135.293C855.151 135.142 855.717 134.992 856.282 134.849C862.226 133.337 873.622 134.536 878.058 137.142C882.27 139.616 897.607 139.039 907.207 136.83C913.099 135.475 916.633 133.26 918.492 131.741C917.897 130.82 917.526 129.736 917.467 128.562C917.334 125.918 918.81 123.57 921.034 122.455C921.811 122.067 922.677 121.825 923.601 121.779C927.168 121.599 930.205 124.346 930.384 127.912C930.564 131.48 927.817 134.517 924.25 134.696C923.326 134.742 922.44 134.589 921.628 134.28C920.51 133.854 919.538 133.124 918.813 132.19C916.906 133.75 913.329 135.969 907.326 137.35C903.2 138.3 898.071 138.957 893.191 139.202C886.537 139.536 880.346 139.105 877.788 137.602C873.528 135.099 862.141 133.909 856.413 135.366C855.85 135.509 855.285 135.658 854.714 135.808C849.328 137.228 843.224 138.836 832.118 137.51C820.15 136.082 815.69 138.295 815.647 138.317L815.408 137.857L806.502 148.956L847.803 146.881L847.618 146.574C848.102 146.28 859.595 139.426 867.909 141.573C870.341 142.2 872.255 143.553 873.62 145.583L934.624 142.517L955.614 125.161Z" fill="#F5734A"/>
<path fill-rule="evenodd" clip-rule="evenodd" d="M867.643 142.605C861.279 140.964 852.582 145.104 849.4 146.8L872.346 145.647C871.163 144.135 869.59 143.108 867.643 142.605Z" fill="#F5734A"/>
<path fill-rule="evenodd" clip-rule="evenodd" d="M850.324 127.138C860.178 129.082 868.399 129.558 875.344 129.209C884.04 128.772 890.735 127.04 896.114 125.277C896.228 125.219 907.658 119.538 919.435 120.251C928.103 120.776 934.293 118.627 937.043 117.405L936.534 117.192C933.677 118.412 927.711 120.35 919.459 119.852C907.574 119.132 896.049 124.861 895.962 124.908C886.36 128.054 872.503 131.105 850.401 126.745C831.264 122.971 820.227 128.558 816.916 130.657L817.21 130.935C818.5 130.117 820.915 128.8 824.481 127.716C829.646 126.145 838.321 124.771 850.324 127.138Z" fill="#DB4F25"/>
<path fill-rule="evenodd" clip-rule="evenodd" d="M832.118 137.51C843.224 138.836 849.328 137.227 854.713 135.808C855.285 135.658 855.85 135.509 856.413 135.366C862.141 133.909 873.527 135.099 877.787 137.602C880.345 139.105 886.537 139.536 893.19 139.202C898.071 138.957 903.199 138.299 907.326 137.35C913.329 135.969 916.905 133.75 918.813 132.19C918.7 132.045 918.592 131.896 918.492 131.741C916.632 133.26 913.098 135.475 907.207 136.83C897.607 139.039 882.27 139.616 878.057 137.142C873.622 134.536 862.225 133.337 856.281 134.849C855.717 134.992 855.151 135.142 854.577 135.293C849.238 136.7 843.186 138.294 832.181 136.98C820.387 135.573 815.864 137.615 815.43 137.829L815.407 137.857L815.647 138.317C815.69 138.295 820.15 136.081 832.118 137.51Z" fill="#DB4F25"/>
<path fill-rule="evenodd" clip-rule="evenodd" d="M873.974 119.787C875.061 120.282 876.32 120.493 877.751 120.421C881.163 120.249 885.547 118.462 890.843 115.082L888.634 115.193C880.779 119.869 876.594 119.8 874.432 118.823C872.886 118.125 872.155 116.893 871.819 116.038L870.708 116.094C871.051 117.127 871.91 118.847 873.974 119.787Z" fill="#DB4F25"/>
<path fill-rule="evenodd" clip-rule="evenodd" d="M867.909 141.573C859.595 139.426 848.102 146.28 847.617 146.574L847.803 146.881L849.4 146.8C852.582 145.104 861.279 140.964 867.642 142.605C869.59 143.108 871.163 144.135 872.346 145.647L873.619 145.583C872.255 143.553 870.341 142.2 867.909 141.573Z" fill="#DB4F25"/>
<path fill-rule="evenodd" clip-rule="evenodd" d="M834.763 120.909C820.801 120.017 811.842 125.227 811.753 125.281L811.957 125.624C812.045 125.572 820.907 120.425 834.737 121.308C845.612 122.003 856.501 118.291 860.841 116.59L859.551 116.654C854.672 118.466 844.708 121.546 834.763 120.909Z" fill="#DB4F25"/>
<path fill-rule="evenodd" clip-rule="evenodd" d="M819.765 161.611L941.973 164.889L927.968 178.779L941.18 194.476L812.942 191.037L791.551 174.177L819.765 161.611Z" fill="#DB4F25"/>
<path fill-rule="evenodd" clip-rule="evenodd" d="M817.939 169.898C818.863 169.922 819.736 170.144 820.521 170.514C818.219 171.454 816.567 173.682 816.496 176.328C816.425 178.974 817.955 181.288 820.204 182.35C819.399 182.678 818.517 182.851 817.592 182.827C814.022 182.731 811.206 179.759 811.301 176.189C811.397 172.619 814.369 169.802 817.939 169.898Z" fill="#E5EEF4"/>
<path fill-rule="evenodd" clip-rule="evenodd" d="M816.497 176.329C816.567 173.683 818.219 171.454 820.522 170.515C822.772 171.577 824.302 173.89 824.231 176.536C824.16 179.182 822.508 181.41 820.205 182.35C817.956 181.288 816.426 178.974 816.497 176.329Z" fill="white"/>
<path fill-rule="evenodd" clip-rule="evenodd" d="M867.026 165.793C864.888 166.82 860.705 166.986 852.742 162.496L869.573 162.947C869.257 163.81 868.556 165.058 867.026 165.793Z" fill="#F5734A"/>
<path fill-rule="evenodd" clip-rule="evenodd" d="M891.236 173.151C869.242 178.027 855.318 175.3 845.645 172.38C845.557 172.335 833.901 166.877 822.036 167.875C813.798 168.566 807.788 166.768 804.903 165.616L814.229 161.463L850.531 162.436C855.905 165.691 860.329 167.376 863.746 167.468C865.177 167.506 866.431 167.266 867.506 166.746C869.547 165.757 870.366 164.018 870.685 162.977L880.561 163.242C884.94 164.841 895.913 168.298 906.769 167.348C920.574 166.141 929.555 171.08 929.644 171.13L929.839 170.781C929.749 170.73 920.67 165.731 906.734 166.95C896.806 167.819 886.773 164.973 881.853 163.276L936.436 164.74L924.804 176.277C921.444 174.256 910.28 168.929 891.236 173.151Z" fill="#F5734A"/>
<path fill-rule="evenodd" clip-rule="evenodd" d="M786.014 174.028L804.399 165.84C807.177 166.997 813.416 169.001 822.069 168.273C833.825 167.285 845.385 172.696 845.501 172.751C850.92 174.389 857.654 175.963 866.357 176.197C873.309 176.383 881.516 175.715 891.322 173.541C903.266 170.893 911.972 172.064 917.171 173.513C920.762 174.514 923.207 175.775 924.516 176.562L922.431 178.63L926.456 183.412C926.017 183.209 921.447 181.272 909.69 182.956C898.718 184.526 892.631 183.074 887.26 181.793C886.683 181.655 886.114 181.519 885.546 181.389C879.569 180.016 868.202 181.482 863.829 184.191C859.676 186.764 844.33 186.545 834.681 184.561C828.759 183.344 825.175 181.213 823.28 179.737C823.854 178.803 824.199 177.711 824.23 176.535C824.301 173.889 822.771 171.576 820.522 170.514C819.736 170.143 818.864 169.922 817.939 169.897C814.369 169.801 811.397 172.619 811.302 176.189C811.206 179.759 814.022 182.731 817.592 182.827C818.517 182.851 819.4 182.677 820.204 182.349C821.312 181.897 822.266 181.145 822.969 180.193C824.913 181.709 828.541 183.844 834.574 185.084C838.721 185.936 843.864 186.473 848.749 186.605C855.409 186.783 861.588 186.207 864.11 184.644C868.311 182.043 879.666 180.586 885.427 181.909C885.993 182.039 886.561 182.174 887.136 182.311C892.553 183.604 898.693 185.069 909.766 183.484C921.697 181.775 926.207 183.884 926.25 183.905L926.479 183.44L935.642 194.327L894.304 193.219L894.482 192.908C893.991 192.626 882.341 186.043 874.079 188.383C871.662 189.067 869.781 190.464 868.464 192.526L807.405 190.888L786.014 174.028Z" fill="#F5734A"/>
<path fill-rule="evenodd" clip-rule="evenodd" d="M874.37 189.409C880.692 187.619 889.484 191.555 892.705 193.176L869.738 192.561C870.886 191.021 872.434 189.957 874.37 189.409Z" fill="#F5734A"/>
<path fill-rule="evenodd" clip-rule="evenodd" d="M891.322 173.542C881.516 175.715 873.308 176.384 866.357 176.198C857.653 175.964 850.921 174.39 845.501 172.752C845.386 172.697 833.825 167.286 822.068 168.274C813.416 169.002 807.177 166.998 804.398 165.841L804.903 165.616C807.788 166.768 813.797 168.567 822.035 167.875C833.9 166.877 845.556 172.336 845.644 172.38C855.318 175.3 869.242 178.027 891.236 173.151C910.28 168.929 921.444 174.256 924.803 176.278L924.516 176.562C923.207 175.775 920.762 174.514 917.171 173.514C911.971 172.065 903.266 170.894 891.322 173.542Z" fill="#DB4F25"/>
<path fill-rule="evenodd" clip-rule="evenodd" d="M909.765 183.484C898.693 185.069 892.554 183.604 887.136 182.312C886.561 182.175 885.993 182.04 885.427 181.909C879.666 180.586 868.311 182.043 864.11 184.645C861.588 186.207 855.409 186.784 848.749 186.605C843.865 186.474 838.721 185.937 834.573 185.084C828.541 183.844 824.913 181.709 822.97 180.194C823.079 180.047 823.183 179.895 823.28 179.738C825.175 181.213 828.759 183.345 834.681 184.562C844.33 186.545 859.676 186.764 863.829 184.191C868.202 181.483 879.569 180.017 885.546 181.389C886.114 181.52 886.683 181.656 887.26 181.793C892.631 183.075 898.718 184.527 909.69 182.956C921.447 181.273 926.017 183.209 926.456 183.413L926.479 183.44L926.251 183.906C926.207 183.884 921.697 181.776 909.765 183.484Z" fill="#DB4F25"/>
<path fill-rule="evenodd" clip-rule="evenodd" d="M867.506 166.745C866.432 167.266 865.177 167.506 863.746 167.467C860.33 167.376 855.906 165.691 850.531 162.437L852.742 162.496C860.705 166.986 864.888 166.82 867.027 165.792C868.556 165.058 869.258 163.81 869.573 162.947L870.685 162.977C870.366 164.017 869.548 165.757 867.506 166.745Z" fill="#DB4F25"/>
<path fill-rule="evenodd" clip-rule="evenodd" d="M874.079 188.383C882.34 186.043 893.99 192.626 894.482 192.908L894.304 193.219L892.704 193.177C889.484 191.555 880.693 187.619 874.369 189.409C872.435 189.957 870.886 191.021 869.739 192.561L868.464 192.526C869.781 190.465 871.662 189.067 874.079 188.383Z" fill="#DB4F25"/>
<path fill-rule="evenodd" clip-rule="evenodd" d="M906.733 166.949C920.669 165.731 929.749 170.73 929.839 170.781L929.643 171.129C929.554 171.08 920.574 166.141 906.769 167.348C895.913 168.297 884.939 164.841 880.561 163.241L881.853 163.276C886.772 164.972 896.805 167.818 906.733 166.949Z" fill="#DB4F25"/>
</svg>
